<svg width="36" height="36" viewBox="0 0 36 36" fill="none" xmlns="http://www.w3.org/2000/svg">
  <path fill-rule="evenodd" clip-rule="evenodd" d="M26.5166 26.5165C21.635 31.3981 13.7205 31.3981 8.8389 26.5165C3.95734 21.635 3.95735 13.7204 8.8389 8.83883C13.7205 3.95728 21.635 3.95728 26.5166 8.83884C31.3981 13.7204 31.3981 21.635 26.5166 26.5165ZM21.1509 13.8718C21.3461 14.067 21.3461 14.3836 21.1509 14.5789L18.0521 17.6777L21.1509 20.7765C21.3461 20.9717 21.3461 21.2883 21.1509 21.4836C20.9556 21.6788 20.639 21.6788 20.4438 21.4836L17.345 18.3848L14.5789 21.1508C14.3837 21.3461 14.0671 21.3461 13.8718 21.1508C13.6766 20.9555 13.6766 20.639 13.8718 20.4437L16.6379 17.6777L13.8718 14.9116C13.6766 14.7164 13.6766 14.3998 13.8718 14.2045C14.0671 14.0093 14.3837 14.0093 14.5789 14.2045L17.345 16.9706L20.4438 13.8718C20.639 13.6765 20.9556 13.6765 21.1509 13.8718Z" fill="#57BFE0"/>
</svg>
